<svg width="25" height="24" viewBox="0 0 25 24" fill="none" xmlns="http://www.w3.org/2000/svg">
<mask id="mask0_284_973" style="mask-type:alpha" maskUnits="userSpaceOnUse" x="2" y="0" width="21" height="24">
<path fill-rule="evenodd" clip-rule="evenodd" d="M9.16877 1.30393C10.0646 0.461183 11.2642 0 12.5001 0C13.7361 0 14.9357 0.461183 15.8315 1.30393C16.7299 2.14912 17.2501 3.31233 17.2501 4.5426V11.3011C17.2501 11.9914 16.6905 12.5511 16.0001 12.5511C15.3098 12.5511 14.7501 11.9914 14.7501 11.3011V4.5426C14.7501 4.02636 14.5328 3.51461 14.1185 3.12483C13.7016 2.73261 13.1207 2.5 12.5001 2.5C11.8796 2.5 11.2987 2.73261 10.8818 3.12483C10.4674 3.51461 10.2501 4.02636 10.2501 4.5426V11.3011C10.2501 11.9914 9.6905 12.5511 9.00014 12.5511C8.30978 12.5511 7.75014 11.9914 7.75014 11.3011V4.5426C7.75014 3.31233 8.27035 2.14912 9.16877 1.30393Z" fill="#006FFD"/>
<path fill-rule="evenodd" clip-rule="evenodd" d="M3.37314 10.215C3.49495 8.51449 4.91002 7.19717 6.61483 7.19717H18.3853C20.0902 7.19717 21.5052 8.5145 21.627 10.215L22.3434 20.215C22.4782 22.0965 20.9881 23.6972 19.1017 23.6972H5.89848C4.01211 23.6972 2.52201 22.0965 2.65679 20.215L3.37314 10.215ZM6.61483 9.69717C6.22141 9.69717 5.89486 10.0012 5.86675 10.3936L5.1504 20.3936C5.1193 20.8278 5.46317 21.1972 5.89848 21.1972H19.1017C19.537 21.1972 19.8809 20.8278 19.8498 20.3936L19.1334 10.3936C19.1053 10.0012 18.7788 9.69717 18.3853 9.69717H6.61483Z" fill="#006FFD"/>
</mask>
<g mask="url(#mask0_284_973)">
<rect x="0.5" width="24" height="24" fill="#8C8C8C"/>
</g>
</svg>
